<svg width="137" height="36" viewBox="0 0 137 36" fill="none" xmlns="http://www.w3.org/2000/svg"><g clip-path="url(#clip0_309_4097)"><path d="M42.6923 10.5143C43.3654 9.63233 44.2822 8.88958 45.4427 8.28609C46.6033 7.68259 47.9147 7.38086 49.3769 7.38086C51.0481 7.38086 52.5683 7.79865 53.9379 8.63425C55.3305 9.44662 56.4214 10.5956 57.2107 12.081C57.9998 13.5665 58.3945 15.2725 58.3945 17.199C58.3945 19.1256 57.9998 20.8547 57.2107 22.3867C56.4214 23.8954 55.3305 25.0791 53.9379 25.9379C52.5683 26.7734 51.0481 27.1913 49.3769 27.1913C47.9147 27.1913 46.6147 26.9011 45.4774 26.3209C44.3403 25.7174 43.4118 24.9747 42.6923 24.0927V35.9998H38.7233V7.69422H42.6923V10.5143ZM54.3558 17.199C54.3558 15.876 54.0771 14.7387 53.5201 13.787C52.9862 12.8122 52.2667 12.081 51.3614 11.5936C50.4795 11.083 49.5278 10.8277 48.5065 10.8277C47.5086 10.8277 46.5569 11.083 45.6515 11.5936C44.7697 12.1043 44.0499 12.847 43.4931 13.8219C42.9593 14.7967 42.6923 15.9457 42.6923 17.2687C42.6923 18.5917 42.9593 19.7522 43.4931 20.7503C44.0499 21.7252 44.7697 22.4679 45.6515 22.9785C46.5569 23.4892 47.5086 23.7445 48.5065 23.7445C49.5278 23.7445 50.4795 23.4892 51.3614 22.9785C52.2667 22.4447 52.9862 21.6787 53.5201 20.6807C54.0771 19.6826 54.3558 18.5221 54.3558 17.199Z" fill="white"></path><path d="M79.6925 7.69434V26.8781H75.7235V24.615C75.0968 25.4042 74.2728 26.0309 73.2515 26.4951C72.2536 26.9362 71.1859 27.1567 70.0485 27.1567C68.5397 27.1567 67.1819 26.8431 65.9749 26.2166C64.7912 25.5899 63.8512 24.6615 63.1549 23.4313C62.4819 22.2011 62.1451 20.7156 62.1451 18.9748V7.69434H66.0795V18.3829C66.0795 20.1005 66.5088 21.4235 67.3677 22.352C68.2264 23.2572 69.3987 23.7098 70.884 23.7098C72.3696 23.7098 73.5416 23.2572 74.4006 22.352C75.2824 21.4235 75.7235 20.1005 75.7235 18.3829V7.69434H79.6925Z" fill="white"></path><path d="M88.8984 10.4795C89.4787 9.50465 90.2448 8.7503 91.1963 8.21646C92.1712 7.65939 93.3203 7.38086 94.6432 7.38086V11.4892H93.6336C92.0784 11.4892 90.8947 11.8838 90.0821 12.6729C89.2931 13.4621 88.8984 14.8315 88.8984 16.7813V26.8779H84.9293V7.69422H88.8984V10.4795Z" fill="white"></path><path d="M115.874 16.8161C115.874 17.5356 115.827 18.1855 115.734 18.7658H101.077C101.193 20.2977 101.762 21.5279 102.783 22.4563C103.804 23.3847 105.058 23.8489 106.543 23.8489C108.678 23.8489 110.187 22.9553 111.069 21.1681H115.352C114.771 22.9321 113.715 24.3828 112.183 25.5201C110.674 26.6342 108.794 27.1913 106.543 27.1913C104.709 27.1913 103.061 26.7852 101.599 25.9727C100.16 25.1372 99.0227 23.9766 98.1872 22.4911C97.3747 20.9824 96.9686 19.2416 96.9686 17.2687C96.9686 15.2958 97.3632 13.5665 98.1523 12.081C98.9646 10.5724 100.09 9.41182 101.529 8.59942C102.992 7.78705 104.663 7.38086 106.543 7.38086C108.353 7.38086 109.967 7.77545 111.382 8.56462C112.798 9.35379 113.901 10.4679 114.69 11.907C115.479 13.3228 115.874 14.9592 115.874 16.8161ZM111.731 15.5627C111.708 14.1004 111.185 12.9282 110.164 12.0462C109.143 11.1642 107.878 10.7232 106.369 10.7232C105 10.7232 103.827 11.1642 102.853 12.0462C101.878 12.905 101.297 14.0772 101.112 15.5627H111.731Z" fill="white"></path><path d="M128.693 10.9323H125.141V26.8781H121.138V10.9323H118.874V7.6944H121.138V6.33656C121.138 4.13152 121.718 2.52998 122.878 1.53191C124.062 0.510637 125.907 0 128.414 0V3.30755C127.207 3.30755 126.36 3.53965 125.873 4.00387C125.385 4.44488 125.141 5.22243 125.141 6.33656V7.6944H128.693V10.9323Z" fill="white"></path><path d="M134.23 5.15299C133.51 5.15299 132.906 4.90929 132.419 4.42185C131.932 3.93443 131.688 3.33094 131.688 2.61141C131.688 1.89187 131.932 1.28839 132.419 0.800965C132.906 0.313538 133.51 0.0698242 134.23 0.0698242C134.926 0.0698242 135.518 0.313538 136.005 0.800965C136.493 1.28839 136.736 1.89187 136.736 2.61141C136.736 3.33094 136.493 3.93443 136.005 4.42185C135.518 4.90929 134.926 5.15299 134.23 5.15299ZM136.179 7.69459V26.8783H132.21V7.69459H136.179Z" fill="white"></path><path fill-rule="evenodd" clip-rule="evenodd" d="M9.71821 3.25164L23.9656 18.8L7.0057 4.5689C6.76943 4.71612 6.53775 4.86999 6.31093 5.03026L23.4514 19.4128L4.02493 7.03679C3.84207 7.23495 3.66471 7.43828 3.49309 7.64652L23.0215 20.0875L1.81021 10.1965C1.68798 10.433 1.5721 10.6733 1.46282 10.9172L22.6834 20.8126L0.51835 13.8239C0.463316 14.0859 0.415402 14.3505 0.374821 14.6175L22.4428 21.5755L0.235901 17.6598C0.25224 17.937 0.276421 18.2122 0.308226 18.4849L22.304 22.3634L0.972044 21.432C1.06549 21.7072 1.16703 21.9786 1.27638 22.246L22.269 23.1626L2.68709 24.8758C2.86203 25.1336 3.04511 25.3854 3.23597 25.6308L22.3388 23.9596L5.25549 27.7467C5.51613 27.9697 5.78479 28.1835 6.06103 28.3875L22.5119 24.7406L8.49797 29.8411C8.85221 30.0075 9.21431 30.1598 9.58359 30.2974L22.7855 25.4923L12.2065 30.9995C12.6704 31.0774 13.1419 31.1331 13.6197 31.1657L23.1549 26.202L16.1314 31.1198C16.7599 31.0539 17.3765 30.9475 17.9783 30.8033L23.6138 26.8571L20.0233 30.1473C21.0852 29.7163 22.0841 29.1622 23.0022 28.5027L24.1543 27.447L23.7531 27.9251C26.9633 25.2842 29.0105 21.2808 29.0105 16.7992C29.0105 15.3917 28.8086 14.0312 28.4321 12.7454L28.25 16.9147L27.7174 10.8267C27.4388 10.2159 27.1185 9.62799 26.7604 9.06655L27.4532 16.9844L25.2642 7.11095C24.9321 6.74594 24.5814 6.39804 24.2138 6.06876L26.6721 17.1576L22.0541 4.46978C21.7087 4.26082 21.3539 4.06596 20.9903 3.88599L25.9203 17.4312L18.3505 2.88967C18.0139 2.79938 17.6723 2.72098 17.3264 2.65497L25.2107 17.8006L14.4274 2.40039C14.1092 2.40436 13.7935 2.41865 13.4806 2.44294L24.5554 18.2595L10.5532 2.97876C10.2712 3.06143 9.99277 3.1525 9.71821 3.25164Z" fill="white"></path><path fill-rule="evenodd" clip-rule="evenodd" d="M9.71821 3.25164L23.9656 18.8L7.0057 4.5689C6.76943 4.71612 6.53775 4.86999 6.31093 5.03026L23.4514 19.4128L4.02493 7.03679C3.84207 7.23495 3.66471 7.43828 3.49309 7.64652L23.0215 20.0875L1.81021 10.1965C1.68798 10.433 1.5721 10.6733 1.46282 10.9172L22.6834 20.8126L0.51835 13.8239C0.463316 14.0859 0.415402 14.3505 0.374821 14.6175L22.4428 21.5755L0.235901 17.6598C0.25224 17.937 0.276421 18.2121 0.308226 18.4849L22.304 22.3633L0.972044 21.432C1.06549 21.7072 1.16703 21.9786 1.27638 22.246L22.269 23.1626L2.68709 24.8758C2.86203 25.1336 3.04511 25.3854 3.23597 25.6308L22.3388 23.9596L5.25549 27.7467C5.51613 27.9697 5.78479 28.1835 6.06103 28.3875L22.5119 24.7406L8.49797 29.8411C8.85221 30.0075 9.21431 30.1598 9.58359 30.2974L22.7855 25.4923L12.2065 30.9995C12.6704 31.0774 13.1419 31.1331 13.6197 31.1657L23.1549 26.202L16.1314 31.1198C16.7599 31.0539 17.3765 30.9475 17.9783 30.8033L23.6138 26.8571L20.0233 30.1473C21.0852 29.7163 22.0841 29.1622 23.0022 28.5027L24.1543 27.447L23.7531 27.9251C26.9633 25.2842 29.0105 21.2808 29.0105 16.7992C29.0105 15.3917 28.8086 14.0312 28.4321 12.7454L28.25 16.9147L27.7174 10.8267C27.4388 10.2159 27.1185 9.62799 26.7604 9.06655L27.4532 16.9844L25.2642 7.11095C24.9321 6.74594 24.5814 6.39804 24.2138 6.06876L26.6721 17.1576L22.0541 4.46978C21.7087 4.26082 21.3539 4.06596 20.9903 3.88599L25.9203 17.4312L18.3505 2.88967C18.0139 2.79938 17.6723 2.72098 17.3264 2.65497L25.2107 17.8006L14.4274 2.40039C14.1092 2.40436 13.7935 2.41865 13.4806 2.44294L24.5554 18.2595L10.5532 2.97876C10.2712 3.06143 9.99277 3.1525 9.71821 3.25164Z" fill="url(#paint0_linear_309_4097)"></path></g><defs><linearGradient id="paint0_linear_309_4097" x1="26.8775" y1="25.0743" x2="2.6757" y2="8.18149" gradientUnits="userSpaceOnUse"><stop stop-color="#7000FF"></stop><stop offset="0.489583" stop-color="#00FFD1"></stop><stop offset="1" stop-color="#FFBF1C"></stop></linearGradient><clipPath id="clip0_309_4097"><rect width="137" height="36" fill="white"></rect></clipPath></defs></svg>