<svg width="60" height="58" viewBox="0 0 60 58" fill="none" xmlns="http://www.w3.org/2000/svg">
    <rect x="1.65973" y="1" width="56.825" height="56" rx="28" fill="#0C0D30"/>
    <path fill-rule="evenodd" clip-rule="evenodd" d="M20.795 3.59803L47.5324 32.7863L15.7046 6.07086C15.2612 6.34724 14.8264 6.63609 14.4007 6.93695L46.5674 33.9367L10.1107 10.7037C9.76754 11.0757 9.4347 11.4575 9.11261 11.8484L45.7607 35.2033L5.95444 16.6353C5.72505 17.0793 5.50759 17.5304 5.3025 17.9883L45.1263 36.5645L3.53006 23.445C3.42678 23.9367 3.33686 24.4335 3.2607 24.9347L44.6748 37.9967L3 30.646C3.03066 31.1664 3.07604 31.6828 3.13573 32.1949L44.4142 39.4757L4.38149 37.7273C4.55685 38.2439 4.7474 38.7535 4.95262 39.2555L44.3486 40.9761L7.60003 44.1923C7.92835 44.6761 8.27192 45.1489 8.63009 45.6097L44.4795 42.4722L12.42 49.5818C12.9092 50.0003 13.4134 50.4018 13.9318 50.7847L44.8044 43.9385L18.505 53.5135C19.1698 53.8259 19.8494 54.1117 20.5424 54.37L45.3179 45.3497L25.4647 55.6881C26.3353 55.8343 27.22 55.9389 28.1168 56L46.0111 46.6818L32.8303 55.9139C34.0099 55.7902 35.1669 55.5905 36.2963 55.3197L46.8723 47.9117L40.1341 54.0882C42.127 53.2792 44.0016 52.239 45.7245 51.001L47.8865 49.0191L47.1337 49.9167C53.1581 44.9589 57 37.4435 57 29.0304C57 26.388 56.6212 23.8342 55.9145 21.4203L55.5727 29.2472L54.5734 17.8183C54.0504 16.6717 53.4494 15.5681 52.7774 14.5141L54.0774 29.3781L49.9696 10.843C49.3463 10.1577 48.6882 9.50465 47.9982 8.8865L52.6116 29.7031L43.9453 5.88478C43.2971 5.49251 42.6311 5.12672 41.9488 4.78886L51.2008 30.2168L36.9949 2.91851C36.3631 2.749 35.7221 2.60183 35.073 2.47791L49.8692 30.9103L29.6325 2C29.0354 2.00745 28.4429 2.03427 27.8556 2.07987L48.6393 31.7717L22.362 3.08576C21.8328 3.24095 21.3103 3.4119 20.795 3.59803Z" fill="url(#paint0_linear)"/>
    <defs>
        <linearGradient id="paint0_linear" x1="52.9971" y1="44.5649" x2="7.56903" y2="12.8664" gradientUnits="userSpaceOnUse">
            <stop stop-color="#7000FF"/>
            <stop offset="0.489583" stop-color="#00FFD1"/>
            <stop offset="1" stop-color="#FFBF1C"/>
        </linearGradient>
    </defs>
</svg>
